<svg viewBox="0 0 142 48" fill="none" xmlns="http://www.w3.org/2000/svg">
<g clip-path="url(#clip0_1_417)">
<path d="M38.7423 12.1938C39.4674 11.475 39.4674 10.3122 38.7423 9.59333C38.0171 8.87449 36.8441 8.87449 36.1189 9.59333C35.3938 10.3122 35.3938 11.475 36.1189 12.1938C36.8441 12.9127 38.0171 12.9127 38.7423 12.1938Z" fill="black"/>
<path d="M47.1935 22.7826C46.5146 22.7826 45.9654 23.327 45.9654 24C45.9654 24.6731 46.5146 25.2175 47.1935 25.2175C47.8725 25.2175 48.4217 24.6731 48.4217 24C48.4217 23.327 47.8725 22.7826 47.1935 22.7826Z" fill="black"/>
<path d="M46.4488 18.1172C47.094 17.9093 47.4459 17.2221 47.238 16.5826C47.0282 15.943 46.3351 15.5942 45.6899 15.8003C45.0447 16.0082 44.6928 16.6954 44.9008 17.3349C45.1105 17.9745 45.8036 18.3233 46.4488 18.1172Z" fill="black"/>
<path d="M43.5268 11.593C44.076 11.1984 44.1969 10.4373 43.7988 9.89284C43.4007 9.34843 42.6328 9.22862 42.0836 9.62327C41.5345 10.0179 41.4136 10.7791 41.8117 11.3235C42.2098 11.8679 42.9776 11.9877 43.5268 11.593Z" fill="black"/>
<path d="M36.9987 6.55232C37.5479 6.94697 38.3158 6.82717 38.7139 6.28276C39.112 5.73834 38.9911 4.97722 38.4419 4.58256C37.8927 4.18791 37.1249 4.30772 36.7268 4.85213C36.3287 5.39654 36.4496 6.15766 36.9987 6.55232Z" fill="black"/>
<path d="M30.9327 3.49021C31.5779 3.69811 32.271 3.3475 32.4808 2.70795C32.6905 2.0684 32.3368 1.38127 31.6916 1.17337C31.0464 0.965473 30.3533 1.31608 30.1436 1.95564C29.9338 2.59519 30.2875 3.28231 30.9327 3.49021Z" fill="black"/>
<path d="M24.2108 2.43489C24.8897 2.43489 25.4389 1.89047 25.4389 1.21744C25.4389 0.544414 24.8897 0 24.2108 0C23.5319 0 22.9827 0.544414 22.9827 1.21744C22.9827 1.89047 23.5319 2.43489 24.2108 2.43489Z" fill="black"/>
<path d="M17.489 3.49022C18.1342 3.28232 18.4861 2.59519 18.2781 1.95564C18.0684 1.31609 17.3752 0.967239 16.7301 1.17338C16.0849 1.38127 15.733 2.0684 15.9409 2.70795C16.1507 3.34751 16.8438 3.69635 17.489 3.49022Z" fill="black"/>
<path d="M18.2639 10.3192C18.4736 10.9588 19.1667 11.3076 19.8119 11.1015C20.4571 10.8936 20.809 10.2065 20.6011 9.56691C20.3913 8.92735 19.6982 8.57851 19.053 8.78464C18.4078 8.99254 18.0559 9.67967 18.2639 10.3192Z" fill="black"/>
<path d="M20.5922 13.9927C19.947 14.2005 19.5951 14.8877 19.803 15.5272C20.0128 16.1668 20.7059 16.5156 21.3511 16.3095C21.9963 16.1016 22.3482 15.4145 22.1402 14.7749C21.9305 14.1354 21.2374 13.7865 20.5922 13.9927Z" fill="black"/>
<path d="M17.0642 17.7436C16.515 17.349 15.7472 17.4688 15.3491 18.0132C14.9509 18.5576 15.0718 19.3187 15.621 19.7134C16.1702 20.108 16.938 19.9882 17.3361 19.4438C17.7343 18.8994 17.6134 18.1383 17.0642 17.7436Z" fill="black"/>
<path d="M14.9989 25.505C15.659 25.3505 16.0679 24.6948 15.9121 24.0404C15.7563 23.386 15.0948 22.9807 14.4347 23.1352C13.7745 23.2896 13.3657 23.9453 13.5215 24.5997C13.6773 25.2541 14.3388 25.6594 14.9989 25.505Z" fill="black"/>
<path d="M15.9995 28.8045C15.4503 29.1992 15.3295 29.9603 15.7276 30.5047C16.1257 31.0492 16.8935 31.169 17.4427 30.7743C17.9919 30.3796 18.1128 29.6185 17.7147 29.0741C17.3165 28.5297 16.5487 28.4099 15.9995 28.8045Z" fill="black"/>
<path d="M21.2053 34.2047C21.8505 34.4126 22.5437 34.062 22.7534 33.4224C22.9631 32.7829 22.6094 32.0957 21.9643 31.8879C21.3191 31.68 20.6259 32.0306 20.4162 32.6701C20.2065 33.3097 20.5602 33.9968 21.2053 34.2047Z" fill="black"/>
<path d="M27.8295 34.0074C28.4747 33.7995 28.8266 33.1123 28.6186 32.4728C28.4089 31.8332 27.7157 31.4844 27.0706 31.6905C26.4254 31.8984 26.0735 32.5856 26.2814 33.2251C26.4912 33.8647 27.1843 34.2135 27.8295 34.0074Z" fill="black"/>
<path d="M31.0855 28.5562C30.6874 29.1006 30.8083 29.8617 31.3575 30.2564C31.9066 30.651 32.6745 30.5312 33.0726 29.9868C33.4707 29.4424 33.3498 28.6813 32.8006 28.2866C32.2515 27.8919 31.4836 28.0118 31.0855 28.5562Z" fill="black"/>
<path d="M33.9847 24.867C34.6448 24.7126 35.0537 24.0569 34.8979 23.4025C34.7421 22.7481 34.0806 22.3428 33.4205 22.4973C32.7603 22.6517 32.3515 23.3074 32.5073 23.9618C32.6631 24.6162 33.3245 25.0215 33.9847 24.867Z" fill="black"/>
<path d="M32.694 17.4953C32.2959 16.9508 31.5281 16.831 30.9789 17.2257C30.4297 17.6203 30.3089 18.3815 30.707 18.9259C31.1051 19.4703 31.8729 19.5901 32.4221 19.1954C32.9713 18.8008 33.0922 18.0397 32.694 17.4953Z" fill="black"/>
<path d="M26.4574 16.1104C27.1025 16.3183 27.7957 15.9677 28.0054 15.3281C28.2151 14.6886 27.8615 14.0014 27.2163 13.7936C26.5711 13.5857 25.8779 13.9363 25.6682 14.5758C25.4585 15.2154 25.8122 15.9025 26.4574 16.1104Z" fill="black"/>
<path d="M11.0159 14.6974C10.6178 15.2418 10.7387 16.0029 11.2879 16.3976C11.8371 16.7923 12.6049 16.6724 13.003 16.128C13.4011 15.5836 13.2803 14.8225 12.7311 14.4278C12.1819 14.0332 11.4141 14.153 11.0159 14.6974Z" fill="black"/>
<path d="M9.52796 25.3471C10.1881 25.1927 10.5969 24.537 10.4411 23.8826C10.2853 23.2282 9.62387 22.8229 8.96373 22.9774C8.30358 23.1318 7.89474 23.7875 8.05055 24.4419C8.20636 25.0963 8.86782 25.5016 9.52796 25.3471Z" fill="black"/>
<path d="M11.4798 31.8649C10.9306 32.2596 10.8098 33.0207 11.2079 33.5651C11.606 34.1095 12.3738 34.2293 12.923 33.8347C13.4722 33.44 13.5931 32.6789 13.195 32.1345C12.7968 31.5901 12.029 31.4703 11.4798 31.8649Z" fill="black"/>
<path d="M20.9103 38.5336C21.12 37.894 20.7664 37.2069 20.1212 36.999C19.476 36.7911 18.7829 37.1417 18.5731 37.7813C18.3634 38.4208 18.7171 39.1079 19.3623 39.3158C20.0074 39.5237 20.7006 39.1731 20.9103 38.5336Z" fill="black"/>
<path d="M30.1578 37.6808C29.948 37.0412 29.2549 36.6924 28.6097 36.8985C27.9645 37.1064 27.6126 37.7936 27.8206 38.4331C28.0303 39.0727 28.7234 39.4215 29.3686 39.2154C30.0138 39.0075 30.3657 38.3204 30.1578 37.6808Z" fill="black"/>
<path d="M37.4057 33.3026C37.8038 32.7582 37.683 31.9971 37.1338 31.6024C36.5846 31.2077 35.8168 31.3276 35.4187 31.872C35.0205 32.4164 35.1414 33.1775 35.6906 33.5722C36.2398 33.9668 37.0076 33.847 37.4057 33.3026Z" fill="black"/>
<path d="M39.4556 25.0248C40.1157 24.8704 40.5246 24.2147 40.3688 23.5603C40.2129 22.9059 39.5515 22.5006 38.8913 22.655C38.2312 22.8095 37.8224 23.4652 37.9782 24.1196C38.134 24.774 38.7954 25.1793 39.4556 25.0248Z" fill="black"/>
<path d="M36.9418 16.1351C37.491 15.7404 37.6119 14.9793 37.2138 14.4349C36.8156 13.8905 36.0478 13.7707 35.4986 14.1653C34.9494 14.56 34.8286 15.3211 35.2267 15.8655C35.6248 16.4099 36.3926 16.5297 36.9418 16.1351Z" fill="black"/>
<path d="M27.5113 9.46644C27.3016 10.106 27.6553 10.7931 28.3004 11.001C28.9456 11.2089 29.6388 10.8583 29.8485 10.2188C30.0582 9.5792 29.7045 8.89207 29.0594 8.68418C28.4142 8.47628 27.721 8.82689 27.5113 9.46644Z" fill="black"/>
<path d="M11.4229 6.55232C11.9721 6.15766 12.093 5.39654 11.6948 4.85213C11.2967 4.30772 10.5289 4.18791 9.97971 4.58256C9.43051 4.97722 9.30965 5.73834 9.70778 6.28276C10.1059 6.82717 10.8737 6.94697 11.4229 6.55232Z" fill="black"/>
<path d="M4.89481 11.593C5.444 11.9877 6.21181 11.8679 6.60993 11.3235C7.00806 10.7791 6.8872 10.0179 6.338 9.62327C5.78881 9.22862 5.021 9.34843 4.62288 9.89284C4.22475 10.4373 4.34561 11.1984 4.89481 11.593Z" fill="black"/>
<path d="M2.73172 15.8021C2.08655 15.5942 1.39339 15.9448 1.18366 16.5844C0.973939 17.2239 1.32763 17.911 1.9728 18.1189C2.61797 18.3268 3.31113 17.9762 3.52086 17.3367C3.73058 16.6971 3.37689 16.01 2.73172 15.8021Z" fill="black"/>
<path d="M2.42423 24.2789C2.58004 23.6245 2.1712 22.9688 1.51105 22.8144C0.850909 22.6599 0.189449 23.0652 0.0336412 23.7196C-0.122167 24.374 0.286679 25.0297 0.946822 25.1841C1.60697 25.3386 2.26843 24.9333 2.42423 24.2789Z" fill="black"/>
<path d="M1.9728 29.8828C1.32763 30.0907 0.975714 30.7779 1.18366 31.4174C1.39339 32.057 2.08655 32.4058 2.73172 32.1997C3.37689 31.9918 3.7288 31.3047 3.52085 30.6651C3.31113 30.0256 2.61797 29.6767 1.9728 29.8828Z" fill="black"/>
<path d="M4.89481 36.407C4.34561 36.8016 4.22475 37.5627 4.62288 38.1072C5.021 38.6516 5.78881 38.7714 6.338 38.3767C6.8872 37.9821 7.00806 37.2209 6.60993 36.6765C6.21181 36.1321 5.444 36.0123 4.89481 36.407Z" fill="black"/>
<path d="M11.4229 41.4476C10.8737 41.053 10.1059 41.1728 9.70778 41.7172C9.30965 42.2616 9.43051 43.0227 9.97971 43.4174C10.5289 43.812 11.2967 43.6922 11.6948 43.1478C12.093 42.6034 11.9721 41.8423 11.4229 41.4476Z" fill="black"/>
<path d="M17.4889 44.5097C16.8438 44.3018 16.1506 44.6524 15.9409 45.292C15.7311 45.9316 16.0848 46.6187 16.73 46.8266C17.3752 47.0345 18.0683 46.6839 18.2781 46.0443C18.4878 45.4048 18.1341 44.7176 17.4889 44.5097Z" fill="black"/>
<path d="M24.2779 47.9982C24.9551 47.9611 25.4737 47.3867 25.4362 46.7153C25.3987 46.044 24.8193 45.5299 24.142 45.5671C23.4648 45.6043 22.9462 46.1786 22.9837 46.85C23.0212 47.5213 23.6006 48.0354 24.2779 47.9982Z" fill="black"/>
<path d="M30.9327 44.5098C30.2875 44.7177 29.9356 45.4048 30.1436 46.0444C30.3533 46.6839 31.0464 47.0328 31.6916 46.8266C32.3368 46.6187 32.6887 45.9316 32.4808 45.2921C32.271 44.6525 31.5779 44.3037 30.9327 44.5098Z" fill="black"/>
<path d="M36.9987 41.4476C36.4496 41.8423 36.3287 42.6034 36.7268 43.1478C37.1249 43.6922 37.8927 43.812 38.4419 43.4174C38.9911 43.0227 39.112 42.2616 38.7139 41.7172C38.3158 41.1728 37.5479 41.053 36.9987 41.4476Z" fill="black"/>
<path d="M43.5268 36.407C42.9776 36.0123 42.2098 36.1321 41.8117 36.6765C41.4136 37.2209 41.5345 37.9821 42.0836 38.3767C42.6328 38.7714 43.4007 38.6516 43.7988 38.1072C44.1969 37.5627 44.076 36.8016 43.5268 36.407Z" fill="black"/>
<path d="M46.4488 29.8828C45.8036 29.6749 45.1105 30.0256 44.9008 30.6651C44.691 31.3047 45.0447 31.9918 45.6899 32.1997C46.3351 32.4076 47.0282 32.057 47.238 31.4174C47.4477 30.7779 47.094 30.0907 46.4488 29.8828Z" fill="black"/>
<path d="M31.0465 6.65098C30.5808 7.55481 30.9452 8.66302 31.8569 9.12462C32.7705 9.58623 33.8867 9.22505 34.3523 8.32122C34.818 7.41739 34.4536 6.30918 33.5419 5.84757C32.6283 5.38597 31.5121 5.74715 31.0465 6.65098Z" fill="black"/>
<path d="M26.8448 7.50901C27.8561 7.66758 28.807 6.98398 28.967 5.98149C29.1269 4.97899 28.4373 4.0364 27.426 3.87783C26.4147 3.71926 25.4638 4.40286 25.3039 5.40536C25.1439 6.40785 25.8335 7.35045 26.8448 7.50901Z" fill="black"/>
<path d="M21.5768 7.50901C22.5881 7.35044 23.2795 6.40785 23.1178 5.40535C22.9578 4.40285 22.0069 3.71749 20.9956 3.87782C19.9843 4.03639 19.2929 4.97898 19.4547 5.98148C19.6146 6.98397 20.5655 7.66933 21.5768 7.50901Z" fill="black"/>
<path d="M16.5647 9.12464C17.4765 8.66304 17.8408 7.55659 17.3752 6.651C16.9095 5.7454 15.7933 5.38599 14.8798 5.84759C13.9662 6.3092 13.6037 7.41564 14.0693 8.32124C14.535 9.22683 15.6512 9.58625 16.5647 9.12464Z" fill="black"/>
<path d="M12.3009 12.1938C13.0261 11.475 13.0261 10.3122 12.3009 9.59333C11.5758 8.87449 10.4027 8.87449 9.67759 9.59333C8.95244 10.3122 8.95244 11.475 9.67759 12.1938C10.4027 12.9127 11.5758 12.9127 12.3009 12.1938Z" fill="black"/>
<path d="M5.89896 14.7503C5.4333 15.6541 5.79765 16.7623 6.70942 17.2239C7.62119 17.6855 8.73914 17.3244 9.2048 16.4205C9.67046 15.5149 9.30611 14.4085 8.39433 13.9469C7.48078 13.4853 6.36462 13.8465 5.89896 14.7503Z" fill="black"/>
<path d="M5.45285 22.9165C6.46415 23.0751 7.41503 22.3915 7.57499 21.389C7.73495 20.3865 7.04534 19.4439 6.03404 19.2853C5.02274 19.1267 4.07186 19.8103 3.9119 20.8128C3.75194 21.8153 4.44155 22.7579 5.45285 22.9165Z" fill="black"/>
<path d="M6.03404 28.7148C7.04534 28.5562 7.73672 27.6136 7.57498 26.6111C7.41502 25.6086 6.46415 24.9232 5.45285 25.0836C4.44155 25.2421 3.75016 26.1847 3.9119 27.1872C4.07186 28.1897 5.02273 28.8751 6.03404 28.7148Z" fill="black"/>
<path d="M9.20482 31.5795C8.73916 30.6757 7.62299 30.3145 6.70944 30.7761C5.7959 31.2377 5.43332 32.3442 5.89898 33.2497C6.36464 34.1553 7.48081 34.5148 8.39436 34.0532C9.3079 33.5915 9.67048 32.4851 9.20482 31.5795Z" fill="black"/>
<path d="M9.67759 35.8062C8.95244 36.5251 8.95244 37.6879 9.67759 38.4067C10.4027 39.1256 11.5758 39.1256 12.3009 38.4067C13.0261 37.6879 13.0261 36.5251 12.3009 35.8062C11.5758 35.0874 10.4027 35.0874 9.67759 35.8062Z" fill="black"/>
<path d="M16.1002 42.3141C17.1038 42.1086 17.7493 41.1355 17.542 40.1407C17.3347 39.1458 16.3531 38.5059 15.3495 38.7114C14.3459 38.9169 13.7004 39.8899 13.9077 40.8848C14.115 41.8797 15.0966 42.5196 16.1002 42.3141Z" fill="black"/>
<path d="M21.5768 40.491C20.5655 40.3324 19.6147 41.016 19.4547 42.0185C19.2947 43.021 19.9843 43.9636 20.9956 44.1222C22.0069 44.2807 22.9578 43.5971 23.1178 42.5946C23.2777 41.5921 22.5881 40.6496 21.5768 40.491Z" fill="black"/>
<path d="M26.8448 40.491C25.8335 40.6495 25.1421 41.5921 25.3039 42.5946C25.4638 43.5971 26.4147 44.2825 27.426 44.1222C28.4373 43.9636 29.1287 43.021 28.967 42.0185C28.807 41.016 27.8561 40.3307 26.8448 40.491Z" fill="black"/>
<path d="M33.1309 42.304C34.1274 42.0672 34.7416 41.0744 34.5027 40.0866C34.2639 39.0987 33.2623 38.4898 32.2658 38.7266C31.2692 38.9634 30.655 39.9562 30.8939 40.9441C31.1328 41.932 32.1343 42.5408 33.1309 42.304Z" fill="black"/>
<path d="M36.1207 35.8062C35.3956 36.5251 35.3956 37.6879 36.1207 38.4067C36.8459 39.1256 38.0189 39.1256 38.7441 38.4067C39.4692 37.6879 39.4692 36.5251 38.7441 35.8062C38.0189 35.0874 36.8459 35.0874 36.1207 35.8062Z" fill="black"/>
<path d="M42.5227 33.2497C42.9884 32.3442 42.624 31.2377 41.7123 30.7761C40.8005 30.3145 39.6826 30.6757 39.2169 31.5795C38.7512 32.4851 39.1156 33.5915 40.0274 34.0532C40.9409 34.5148 42.0571 34.1536 42.5227 33.2497Z" fill="black"/>
<path d="M42.9688 25.0835C41.9575 24.925 41.0066 25.6086 40.8467 26.611C40.6867 27.6135 41.3763 28.5561 42.3876 28.7147C43.3989 28.8733 44.3498 28.1897 44.5097 27.1872C44.6697 26.1847 43.9801 25.2421 42.9688 25.0835Z" fill="black"/>
<path d="M42.3876 19.2853C41.3763 19.4439 40.6849 20.3865 40.8467 21.3889C41.0066 22.3914 41.9575 23.0768 42.9688 22.9165C43.9801 22.7579 44.6715 21.8153 44.5097 20.8128C44.3498 19.8103 43.3989 19.125 42.3876 19.2853Z" fill="black"/>
<path d="M39.2169 16.4205C39.6825 17.3243 40.7987 17.6855 41.7122 17.2239C42.6258 16.7623 42.9884 15.6558 42.5227 14.7502C42.057 13.8446 40.9409 13.4852 40.0273 13.9468C39.1138 14.4084 38.7512 15.5149 39.2169 16.4205Z" fill="black"/>
<path d="M24.2108 12.8475C25.3593 12.8475 26.2903 11.9246 26.2903 10.7861C26.2903 9.64764 25.3593 8.72473 24.2108 8.72473C23.0624 8.72473 22.1313 9.64764 22.1313 10.7861C22.1313 11.9246 23.0624 12.8475 24.2108 12.8475Z" fill="black"/>
<path d="M17.9699 14.6314C18.7075 13.7588 18.5918 12.4586 17.7115 11.7275C16.8313 10.9963 15.5197 11.1109 14.7821 11.9836C14.0445 12.8562 14.1601 14.1563 15.0404 14.8875C15.9207 15.6187 17.2323 15.504 17.9699 14.6314Z" fill="black"/>
<path d="M13.5095 20.5538C13.865 19.472 13.266 18.3092 12.1747 17.9568C11.0835 17.6045 9.91042 18.1982 9.55495 19.28C9.19949 20.3618 9.79845 21.5246 10.8897 21.877C11.981 22.2293 13.1541 21.6356 13.5095 20.5538Z" fill="black"/>
<path d="M10.8915 26.123C9.80022 26.4754 9.20126 27.6365 9.55672 28.72C9.91219 29.8018 11.0835 30.3955 12.1765 30.0432C13.2678 29.6908 13.8668 28.5297 13.5113 27.4462C13.1558 26.3644 11.9846 25.7707 10.8915 26.123Z" fill="black"/>
<path d="M17.5974 33.0225C16.6679 32.353 15.3686 32.5573 14.6932 33.4788C14.0178 34.4002 14.224 35.6882 15.1536 36.3577C16.0831 37.0272 17.3823 36.8228 18.0577 35.9014C18.7331 34.9799 18.5269 33.692 17.5974 33.0225Z" fill="black"/>
<path d="M24.2108 39.2753C25.3593 39.2753 26.2903 38.3524 26.2903 37.2139C26.2903 36.0754 25.3593 35.1525 24.2108 35.1525C23.0624 35.1525 22.1313 36.0754 22.1313 37.2139C22.1313 38.3524 23.0624 39.2753 24.2108 39.2753Z" fill="black"/>
<path d="M33.2681 36.3577C34.1977 35.6882 34.4021 34.4003 33.7285 33.4788C33.0531 32.5574 31.7538 32.3548 30.8243 33.0225C29.8948 33.692 29.6904 34.9799 30.364 35.9014C31.0394 36.8228 32.3386 37.0254 33.2681 36.3577Z" fill="black"/>
<path d="M36.2469 30.0432C37.3382 30.3955 38.5112 29.8018 38.8667 28.72C39.2222 27.6382 38.6232 26.4754 37.5319 26.123C36.4406 25.7707 35.2676 26.3644 34.9121 27.4462C34.5567 28.528 35.1556 29.6908 36.2469 30.0432Z" fill="black"/>
<path d="M37.5301 21.877C38.6214 21.5246 39.2204 20.3635 38.8649 19.28C38.5095 18.1982 37.3382 17.6045 36.2451 17.9568C35.1539 18.3092 34.5549 19.4703 34.9104 20.5538C35.2658 21.6356 36.4371 22.2293 37.5301 21.877Z" fill="black"/>
<path d="M32.3007 15.3554C33.4404 15.2153 34.2497 14.1858 34.1084 13.056C33.967 11.9262 32.9285 11.1239 31.7888 11.264C30.649 11.4042 29.8397 12.4337 29.981 13.5635C30.1224 14.6933 31.1609 15.4956 32.3007 15.3554Z" fill="black"/>
<path d="M76.5 22.7984C76.5 22.6803 76.5 22.5623 76.5 22.4443C76.5071 19.9054 76.5 17.3666 76.5284 14.8277C76.5391 13.8816 76.2636 13.1487 75.3749 12.6818C75.0337 12.5021 74.7315 12.229 74.4507 11.9594C74.1539 11.674 74.2534 11.341 74.6498 11.2336C74.8506 11.1789 75.0675 11.1631 75.2772 11.1631C76.8412 11.1578 78.4053 11.1578 79.9693 11.1631C80.1648 11.1631 80.3657 11.1789 80.5559 11.2248C81.0251 11.3375 81.1388 11.6828 80.7958 12.0193C80.5185 12.2907 80.2093 12.5479 79.8734 12.7452C79.0665 13.2174 78.7767 13.9222 78.775 14.8119C78.7696 20.182 78.7572 25.5522 78.7448 30.9223C78.7412 32.36 78.3911 32.6718 76.9479 32.5591C76.4467 32.5203 76.0716 32.2719 75.7802 31.8913C74.8613 30.6915 73.9424 29.4934 73.0324 28.2866C70.1336 24.444 67.2401 20.5978 64.3448 16.7535C64.279 16.6654 64.2062 16.5843 64.0889 16.4398C64.0729 16.616 64.0533 16.7306 64.0533 16.8451C64.032 20.848 64.016 24.8509 63.9893 28.8556C63.984 29.7806 64.2364 30.5506 65.1037 31.0439C65.4307 31.2289 65.7293 31.4738 66.0102 31.7257C66.1275 31.8314 66.2465 32.0464 66.2146 32.1767C66.1826 32.3054 65.9782 32.4305 65.8235 32.4833C65.6298 32.5503 65.4094 32.5608 65.1997 32.5608C63.6641 32.5661 62.1267 32.5679 60.5911 32.5608C60.3405 32.5608 60.0828 32.5291 59.8428 32.4604C59.4714 32.3547 59.3736 32.064 59.6509 31.7997C60.0241 31.4456 60.4276 31.1108 60.8612 30.8324C61.4086 30.4818 61.6752 30.0044 61.7179 29.3807C61.7339 29.1587 61.7428 28.9349 61.7428 28.7112C61.7428 24.0105 61.7268 19.3099 61.7588 14.6093C61.7659 13.6684 61.4371 13.0342 60.5875 12.636C60.3351 12.518 60.097 12.3576 59.8784 12.185C59.4873 11.8749 59.5389 11.4996 60.0134 11.3322C60.312 11.2265 60.6444 11.1719 60.9608 11.1684C62.6101 11.1525 64.2577 11.1543 65.9071 11.1631C67.3236 11.1701 68.4167 11.7938 69.2325 12.9232C71.527 16.098 73.8233 19.2694 76.1196 22.4443C76.2138 22.5746 76.3098 22.7015 76.404 22.8301C76.436 22.8195 76.468 22.8107 76.4982 22.8001L76.5 22.7984Z" fill="black"/>
<path d="M88.3725 19.0386C88.8933 18.1595 89.5705 17.5516 90.4609 17.1993C93.0291 16.1809 95.704 16.9596 97.3178 19.1866C98.1994 20.4041 98.674 21.773 98.873 23.2459C99.1609 25.3619 98.9761 27.4215 98.0519 29.3737C96.3812 32.8992 92.551 33.2832 90.4058 32.2402C90.0326 32.0588 89.686 31.8015 89.3714 31.5284C89.0692 31.2677 88.8258 30.94 88.5218 30.6035C88.5094 30.7479 88.4916 30.8642 88.4916 30.9805C88.4898 32.3477 88.5041 33.7149 88.4827 35.0803C88.4756 35.5966 88.648 35.9877 89.0337 36.3295C89.526 36.7647 89.4247 37.2034 88.7884 37.3972C88.5503 37.4694 88.289 37.4888 88.0384 37.4906C86.389 37.4976 84.7414 37.5064 83.0921 37.4853C82.7526 37.48 82.39 37.3989 82.0808 37.258C81.6933 37.0836 81.6418 36.7136 81.9724 36.4528C82.5464 36 82.6477 35.4239 82.646 34.7456C82.63 30.1982 82.6317 25.6526 82.6442 21.1053C82.6442 20.4869 82.5287 19.9671 82.0381 19.5337C81.6507 19.1919 81.7146 18.7902 82.2141 18.5753C82.9072 18.2775 83.6359 18.0573 84.3558 17.8212C85.1556 17.5569 85.9642 17.3138 86.7676 17.0565C87.4696 16.8328 87.8322 17.0107 88.0526 17.7102C88.1202 17.9234 88.1664 18.1419 88.2197 18.3586C88.2677 18.5576 88.3085 18.7585 88.3708 19.0369L88.3725 19.0386ZM88.5023 24.2291C88.5023 24.2291 88.4952 24.2291 88.4916 24.2291C88.4916 25.1065 88.465 25.9856 88.4987 26.8613C88.536 27.8514 88.7511 28.8028 89.4656 29.5552C90.3685 30.5083 91.5575 30.3286 92.1494 29.1675C92.567 28.3448 92.7234 27.455 92.7821 26.5477C92.8994 24.7153 92.887 22.8883 92.1298 21.1705C91.897 20.6402 91.522 20.1204 91.0847 19.7416C90.3383 19.0968 89.3323 19.3311 88.888 20.2085C88.6853 20.6067 88.5467 21.0718 88.52 21.514C88.465 22.4161 88.5041 23.3235 88.5041 24.2291H88.5023Z" fill="black"/>
<path d="M110.984 29.8723C110.278 30.9523 109.384 31.7134 108.224 32.1415C106.935 32.619 105.606 32.7053 104.278 32.3741C102.469 31.923 101.608 30.6017 101.294 28.8997C101.125 27.9871 101.065 27.0462 101.045 26.116C101.008 24.3876 101.024 22.6575 101.04 20.9291C101.045 20.4199 100.889 20.0147 100.519 19.6605C100.021 19.1866 100.078 18.7831 100.727 18.51C101.384 18.2334 102.078 18.0396 102.758 17.8194C103.574 17.5569 104.393 17.3067 105.211 17.0495C106.498 16.6442 106.869 16.905 106.869 18.2299C106.869 20.8093 106.851 23.3904 106.882 25.9697C106.891 26.6727 106.988 27.388 107.148 28.0734C107.319 28.8116 107.777 29.356 108.607 29.4424C109.459 29.5287 110.143 29.1834 110.463 28.4187C110.737 27.7633 110.948 27.0357 110.975 26.3327C111.046 24.4669 111 22.5958 111.005 20.7282C111.005 20.2895 110.795 19.9636 110.488 19.6729C109.964 19.176 110.006 18.769 110.682 18.5083C111.585 18.1594 112.518 17.8916 113.44 17.5939C114.082 17.3877 114.722 17.1693 115.374 16.9984C116.513 16.7006 116.847 16.9649 116.849 18.1312C116.851 22.0637 116.86 25.9962 116.84 29.9286C116.837 30.5453 116.984 31.0316 117.467 31.4403C117.857 31.7698 117.791 32.1521 117.318 32.3565C117.03 32.4798 116.694 32.5432 116.38 32.5503C115.408 32.5749 114.435 32.5573 113.463 32.5608C112.74 32.5626 112.176 32.2684 111.817 31.65C111.588 31.2535 111.409 30.8272 111.213 30.4114C111.138 30.2528 111.076 30.0872 110.986 29.8705L110.984 29.8723Z" fill="black"/>
<path d="M134.711 32.7406C132.721 32.7036 131.116 32.5503 129.621 31.8314C128.898 31.4844 128.267 31.0227 127.902 30.2863C127.485 29.4406 127.643 28.4117 128.259 27.8444C128.914 27.2418 130.106 27.115 130.908 27.566C131.619 27.9659 132.019 28.609 132.324 29.3314C132.443 29.6133 132.577 29.8934 132.745 30.1471C133.433 31.1778 134.812 31.472 135.685 30.7902C136.533 30.1277 136.588 28.602 135.776 27.7386C135.086 27.0057 134.153 26.7168 133.229 26.4102C132.164 26.0578 131.078 25.7477 130.056 25.2985C127.04 23.9683 127.154 19.9019 129.628 18.2422C130.714 17.5128 131.914 17.1147 133.2 16.9526C135.244 16.6936 137.247 16.861 139.185 17.5833C139.929 17.8617 140.601 18.2599 141.129 18.8712C141.685 19.5143 141.757 20.2296 141.421 20.9784C141.102 21.6867 140.498 21.9862 139.734 22.0338C138.556 22.106 137.749 21.5528 137.171 20.5926C136.848 20.0552 136.565 19.4896 136.195 18.9857C135.808 18.4554 135.227 18.2193 134.564 18.2951C133.499 18.4167 132.898 19.2641 133.019 20.3547C133.151 21.5263 133.853 22.2276 134.91 22.5887C135.852 22.9112 136.839 23.1067 137.782 23.4239C138.524 23.674 139.258 23.9753 139.951 24.3383C142.738 25.8006 142.38 29.1111 140.699 30.6862C139.537 31.7751 138.12 32.3054 136.583 32.5573C135.849 32.6771 135.1 32.7053 134.715 32.7423L134.711 32.7406Z" fill="black"/>
<path d="M125.649 20.3741C125.649 23.5948 125.656 26.8172 125.641 30.0379C125.64 30.5805 125.798 31.0034 126.21 31.3663C126.699 31.798 126.587 32.249 125.958 32.4393C125.718 32.5115 125.46 32.5556 125.211 32.5573C123.564 32.5679 121.914 32.575 120.267 32.5521C119.927 32.5468 119.565 32.4569 119.259 32.3124C118.866 32.1257 118.809 31.768 119.138 31.5055C119.723 31.0386 119.817 30.4537 119.814 29.7595C119.796 24.3489 119.799 18.9382 119.81 13.5275C119.81 13.0166 119.657 12.6149 119.277 12.2678C118.769 11.8062 118.833 11.401 119.49 11.1402C120.219 10.8513 120.976 10.6293 121.726 10.3897C122.501 10.1412 123.281 9.9034 124.06 9.66202C125.282 9.28322 125.65 9.54221 125.65 10.7967C125.652 13.9909 125.65 17.1834 125.65 20.3776L125.649 20.3741Z" fill="black"/>
</g>
<defs>
<clipPath id="clip0_1_417">
<rect width="142" height="48" fill="white"/>
</clipPath>
</defs>
</svg>
